<svg xmlns="http://www.w3.org/2000/svg" version="1.1" viewBox="0 0 16 16" width="16" height="16">
  <path style="fill:var(--dxds-icon-color-yellow, #DE6C00)" fill-rule="evenodd" clip-rule="evenodd" d="M7.06152 4.70312C7.35584 3.76627 8.64416 3.76627 8.93848 4.70312L9.32812 5.94434C9.39374 6.15243 9.58743 6.29492 9.80566 6.29492H11.0127C11.5105 6.29514 11.8446 6.64254 11.9551 7.00977C12.0647 7.37545 11.9805 7.83979 11.5947 8.12988L10.5986 8.87793C10.4295 9.00523 10.3594 9.22576 10.4229 9.42773L10.8125 10.6699C10.953 11.118 10.7809 11.5481 10.4727 11.79C10.1601 12.0353 9.68667 12.098 9.29297 11.8027L8.2998 11.0566C8.1219 10.9232 7.87704 10.923 7.69922 11.0566L6.70703 11.8027C6.31343 12.0985 5.84011 12.0351 5.52734 11.79C5.21896 11.548 5.04588 11.1181 5.18652 10.6699L5.57715 9.42773C5.64057 9.22581 5.56942 9.00525 5.40039 8.87793L4.40527 8.12988C4.01917 7.83972 3.93515 7.37556 4.04492 7.00977C4.15543 6.64242 4.4892 6.29492 4.9873 6.29492H6.19434C6.41248 6.29475 6.60538 6.15242 6.6709 5.94434L7.06152 4.70312ZM7.625 6.24414C7.42856 6.86896 6.84931 7.29475 6.19434 7.29492H5.00391L5.00293 7.29785C4.99928 7.31038 4.99981 7.32107 5.00098 7.3252C5.00098 7.3252 5.00335 7.32817 5.00586 7.33008L6.00098 8.07812C6.50861 8.4599 6.72143 9.12053 6.53125 9.72656L6.14062 10.9697C6.13977 10.9725 6.13915 10.9754 6.13867 10.9775L7.09863 10.2578C7.63243 9.85668 8.36757 9.85668 8.90137 10.2578L9.85938 10.9775C9.85892 10.9755 9.85908 10.9723 9.8584 10.9697L9.46875 9.72656C9.27846 9.12033 9.49008 8.45987 9.99805 8.07812L10.9932 7.33008C10.9959 7.32803 10.998 7.32617 10.998 7.32617L10.999 7.3252C11.0002 7.3211 11.0006 7.31025 10.9971 7.29785L10.9961 7.29492H9.80566C9.15059 7.29492 8.57056 6.869 8.37402 6.24414L7.99902 5.05176L7.625 6.24414Z"/>
  <path style="fill:var(--dxds-icon-color-yellow, #DE6C00)" fill-rule="evenodd" clip-rule="evenodd" d="M8 1C11.866 1 15 4.13401 15 8C15 11.866 11.866 15 8 15C4.13401 15 1 11.866 1 8C1 4.13401 4.13401 1 8 1ZM8 2C4.68629 2 2 4.68629 2 8C2 11.3137 4.68629 14 8 14C11.3137 14 14 11.3137 14 8C14 4.68629 11.3137 2 8 2Z"/>
  <path style="fill:var(--dxds-icon-color-yellow, #DE6C00)" d="M7.62494 6.24365C7.42856 6.86876 6.8495 7.29441 6.19427 7.29443H5.00384L5.00286 7.29736C4.9991 7.31006 4.99974 7.32056 5.00091 7.32471C5.00091 7.32471 5.00237 7.32699 5.00579 7.32959L6.00091 8.07764C6.50887 8.45936 6.72143 9.11986 6.53119 9.72607L6.14056 10.9692C6.13964 10.9722 6.13911 10.9748 6.13861 10.9771L7.09857 10.2573C7.63237 9.85618 8.3675 9.85618 8.9013 10.2573L9.85931 10.9771C9.85882 10.9749 9.85921 10.972 9.85833 10.9692L9.46869 9.72607C9.27838 9.11984 9.49001 8.45939 9.99798 8.07764L10.9931 7.32959C10.996 7.32743 10.998 7.32568 10.998 7.32568L10.999 7.32471C11.0001 7.32058 11.0007 7.31001 10.997 7.29736L10.996 7.29443H9.8056C9.15034 7.29443 8.57033 6.86879 8.37396 6.24365L7.99896 5.05127L7.62494 6.24365Z" opacity="0.3"/>
</svg>
