<svg version="1.1" id="Layer_1" xmlns="http://www.w3.org/2000/svg" xmlns:xlink="http://www.w3.org/1999/xlink" x="0px" y="0px"
	 viewBox="0 0 32 32" style="enable-background:new 0 0 32 32;" xml:space="preserve">
<style type="text/css">
	.Green{fill:#039C23;}
</style>
<path class="Green" d="M16,2c-2.2,0-4,1.8-4,4s1.8,4,4,4s4-1.8,4-4S18.2,2,16,2z"/>
<path class="Green" d="M16,22c-2.2,0-4,1.8-4,4s1.8,4,4,4s4-1.8,4-4S18.2,22,16,22z"/>
<path class="Green" d="M6,12c-2.2,0-4,1.8-4,4s1.8,4,4,4s4-1.8,4-4S8.2,12,6,12z"/>
<path class="Green" d="M26,12c-2.2,0-4,1.8-4,4s1.8,4,4,4s4-1.8,4-4S28.2,12,26,12z"/>
</svg>
