<svg xmlns="http://www.w3.org/2000/svg" version="1.1" viewBox="0 0 16 16" width="16" height="16">
  <path style="fill:var(--dxds-icon-color-black, #3A3A38)" fill-rule="evenodd" clip-rule="evenodd" d="M8.68457 1.00488C8.91351 1.0276 9.12886 1.12886 9.29297 1.29297L12.707 4.70703C12.8945 4.89453 13 5.1489 13 5.41406V8H12V6H9.5C8.67157 6 8 5.32843 8 4.5V2H5C4.44772 2 4 2.44772 4 3V13C4 13.5523 4.44772 14 5 14H6V14.5C6 14.6712 6.01702 14.8385 6.0498 15H5L4.7959 14.9893C3.78722 14.887 3 14.0357 3 13V3C3 1.89543 3.89543 1 5 1H8.58594L8.68457 1.00488ZM9 4.5C9 4.77614 9.22386 5 9.5 5H11.5859L9 2.41406V4.5Z"/>
  <path style="fill:var(--dxds-icon-color-yellow, #DE6C00)" fill-rule="evenodd" clip-rule="evenodd" d="M14.5 9C15.3284 9 16 9.67157 16 10.5V14.5C16 15.3284 15.3284 16 14.5 16H8.5C7.67157 16 7 15.3284 7 14.5V10.5C7 9.67157 7.67157 9 8.5 9H14.5ZM12.3213 13.5596C11.8222 13.8863 11.1768 13.8863 10.6777 13.5596L8 11.8057V14.5C8 14.7761 8.22386 15 8.5 15H14.5C14.7761 15 15 14.7761 15 14.5V11.8047L12.3213 13.5596ZM8.5 10C8.22386 10 8 10.2239 8 10.5V10.6113L11.2256 12.7227C11.3919 12.8316 11.6071 12.8316 11.7734 12.7227L15 10.6104V10.5C15 10.2239 14.7761 10 14.5 10H8.5Z"/>
</svg>
