<svg xmlns="http://www.w3.org/2000/svg" version="1.1" viewBox="0 0 16 16" width="16" height="16">
  <path style="fill:var(--dxds-icon-color-yellow, #DE6C00)" d="M11.0611 8.70266C11.3554 7.76578 12.6438 7.76578 12.9381 8.70266L13.3277 9.94387C13.3932 10.1523 13.5868 10.2945 13.8053 10.2945H15.0123C15.5103 10.2945 15.8442 10.642 15.9547 11.0093C16.0645 11.3751 15.9803 11.8392 15.5943 12.1294L14.5982 12.8775C14.4291 13.0048 14.359 13.2253 14.4224 13.4273L14.8121 14.6695C14.9529 15.1177 14.7806 15.5475 14.4722 15.7896C14.1595 16.035 13.6863 16.098 13.2926 15.8023L12.2994 15.0562C12.1215 14.9227 11.8766 14.9225 11.6988 15.0562L10.7066 15.8023C10.3128 16.0981 9.8397 16.0349 9.52693 15.7896C9.21847 15.5475 9.04528 15.1178 9.18611 14.6695L9.57674 13.4273C9.64023 13.2252 9.56933 13.0047 9.39998 12.8775L8.40486 12.1294C8.01863 11.8392 7.93459 11.3752 8.04451 11.0093C8.15501 10.642 8.48878 10.2945 8.98689 10.2945H10.1939C10.4123 10.2944 10.605 10.1522 10.6705 9.94387L11.0611 8.70266ZM11.6246 10.2437C11.4282 10.8688 10.8491 11.2944 10.1939 11.2945H9.00349C9.0032 11.2953 9.00281 11.2964 9.00252 11.2974C8.99875 11.3101 8.99939 11.3206 9.00057 11.3247C9.00059 11.3248 9.00203 11.327 9.00545 11.3296L10.0006 12.0777C10.5085 12.4594 10.7211 13.1199 10.5308 13.7261L10.1402 14.9693C10.1393 14.9722 10.1388 14.9748 10.1383 14.9771L11.0982 14.2574C11.632 13.8562 12.3672 13.8562 12.901 14.2574L13.859 14.9771C13.8585 14.9749 13.8589 14.972 13.858 14.9693L13.4683 13.7261C13.278 13.1199 13.4897 12.4594 13.9976 12.0777L14.9928 11.3296C14.9956 11.3275 14.9972 11.3262 14.9976 11.3257C14.9976 11.3258 14.9983 11.3258 14.9986 11.3247C14.9998 11.3206 15.0004 11.31 14.9967 11.2974L14.9957 11.2945H13.8053C13.15 11.2945 12.57 10.8688 12.3736 10.2437L11.9986 9.0513L11.6246 10.2437Z"/>
  <path style="fill:var(--dxds-icon-color-black, #3A3A38)" d="M10.2793 8C10.211 8.12276 10.1532 8.2569 10.1074 8.40234L9.91895 9H4.11719C3.44556 9.00023 3 9.50091 3 10C3 10.9237 3.54607 11.6435 4.5459 12.1855C5.52672 12.7173 6.80299 12.9798 7.89355 12.9961L8 13V14C5.51767 14 2 12.8404 2 10C2 8.89558 2.94785 8.00023 4.11719 8H10.2793Z"/>
  <path style="fill:var(--dxds-icon-color-black, #3A3A38)" fill-rule="evenodd" clip-rule="evenodd" d="M8 1C9.65685 1 11 2.34315 11 4C11 5.65685 9.65685 7 8 7C6.34315 7 5 5.65685 5 4C5 2.34315 6.34315 1 8 1ZM8 2C6.89543 2 6 2.89543 6 4C6 5.10457 6.89543 6 8 6C9.10457 6 10 5.10457 10 4C10 2.89543 9.10457 2 8 2Z"/>
</svg>
