<svg xmlns="http://www.w3.org/2000/svg" version="1.1" viewBox="0 0 16 16" width="16" height="16">
  <path style="fill:var(--dxds-icon-color-black, #3A3A38)" fill-rule="evenodd" clip-rule="evenodd" d="M6.5 6C6.77614 6 7 6.22386 7 6.5V7H8.03613C8.01277 7.16333 8 7.33021 8 7.5C8 7.66981 8.01273 7.83669 8.03613 8H7V10H8.58789C7.41119 10.0003 6.46519 10.7907 6.13086 11.835C6.05026 11.7462 6 11.6293 6 11.5V11H4.5C4.22386 11 4 10.7761 4 10.5C4 10.2239 4.22386 10 4.5 10H6V8H4.5C4.22386 8 4 7.77614 4 7.5C4 7.22386 4.22386 7 4.5 7H6V6.5C6 6.22386 6.22386 6 6.5 6ZM6 7V8H7V7H6Z" opacity="0.3"/>
  <path style="fill:var(--dxds-icon-color-red, #ED3D3B)" d="M6 7H7V8H6V7Z"/>
  <path style="fill:var(--dxds-icon-color-blue, #1E8BCD)" fill-rule="evenodd" clip-rule="evenodd" d="M14.5742 11.0088C15.3751 11.0942 16 11.8041 16 12.667L15.9922 12.8848C15.8355 15.0932 13.3035 16 11.5 16C9.69651 16 7.16453 15.0932 7.00781 12.8848L7 12.667C7 11.7466 7.71089 11.0002 8.58789 11H14.4121L14.5742 11.0088ZM8.58789 12C8.30799 12.0002 8 12.253 8 12.667C8.00011 13.4071 8.38712 13.9544 9.06738 14.3643C9.77502 14.7905 10.714 15 11.5 15C12.286 15 13.225 14.7905 13.9326 14.3643C14.6129 13.9544 14.9999 13.4071 15 12.667C15 12.253 14.692 12.0002 14.4121 12H8.58789Z"/>
  <path style="fill:var(--dxds-icon-color-blue, #1E8BCD)" fill-rule="evenodd" clip-rule="evenodd" d="M11.5 5C12.8807 5 14 6.11929 14 7.5C14 8.88071 12.8807 10 11.5 10C10.1193 10 9 8.88071 9 7.5C9 6.11929 10.1193 5 11.5 5ZM11.5 6C10.6716 6 10 6.67157 10 7.5C10 8.32843 10.6716 9 11.5 9C12.3284 9 13 8.32843 13 7.5C13 6.67157 12.3284 6 11.5 6Z"/>
  <path style="fill:var(--dxds-icon-color-black, #3A3A38)" d="M12 2C13.1046 2 14 2.89543 14 4V5.05176C13.7132 4.75889 13.3744 4.51819 13 4.33984V4C13 3.44772 12.5523 3 12 3H4C3.44772 3 3 3.44772 3 4H11V4.03516C10.2464 4.14312 9.57057 4.49186 9.05176 5H3V12C3 12.5523 3.44772 13 4 13H6.01465C6.04394 13.3602 6.12032 13.6931 6.23438 14H4C2.89543 14 2 13.1046 2 12V4C2 2.89543 2.89543 2 4 2H12Z"/>
</svg>
