<svg version="1.1" id="Layer_1" xmlns="http://www.w3.org/2000/svg" xmlns:xlink="http://www.w3.org/1999/xlink" x="0px" y="0px"
	 viewBox="0 0 58 32" style="enable-background:new 0 0 58 32;" xml:space="preserve">
<style type="text/css">
	.Red{fill:#D11C1C;}
	.Black{fill:#727272;}
	.Blue{fill:#1177D7;}
	.Green{fill:#039C23;}
	.Yellow{fill:#FFB115;}
	.White{fill:#FFFFFF;}
	.st0{opacity:0.5;}
	.st1{opacity:0.75;}
	.st2{opacity:0.25;}
</style>
<g id="Small_x5F_Memo">
	<path class="Black" d="M41,32H17c-0.5,0-1-0.5-1-1V1c0-0.6,0.5-1,1-1h24c0.5,0,1,0.4,1,1v30C42,31.5,41.5,32,41,32z"/>
	<rect x="18" y="2" class="White" width="22" height="28"/>
	<g class="st2">
		<path class="Black" d="M38,16H20v-2h18V16z M38,18H20v2h18V18z M38,22H20v2h18V22z M38,26H20v2h18V26z"/>
	</g>
	<g class="st0">
		<path class="Black" d="M38,8H20V4h18V8z M24,12h-4v-2h4V12z M38,10H26v2h12V10z"/>
	</g>
</g>
</svg>
